# xmcd
#
# Track frame offsets:
#	150
#	13875
#	30997
#	46353
#	60755
#	80476
#	98511
#	109257
#	121868
#	136504
#	151824
#	165609
#
# Disc length: 2379 seconds
#
# Revision: 1
# Processed by: cddbd v1.5.2PL0 Copyright (c) Steve Scherf et al.
# Submitted via: audiograbber 1.83.01
#
DISCID=7f09490c
DTITLE=Wesley Dennis - Wesley Dennis
DYEAR=1900
DGENRE=Country
TTITLE0=Leave A Picture Of You
TTITLE1=Don't Make Me Feel At Home
TTITLE2=It Ain't  Fair
TTITLE3=Borrowed Angels
TTITLE4=Civil War
TTITLE5=Crazy For You
TTITLE6=Dear Huntin'
TTITLE7=InThe Middle Of A Little love
TTITLE8=Lover's Junk Pile
TTITLE9=Pieces's Of You
TTITLE10=That Look Was Worth A Thousand Words
TTITLE11=Who's Counting
EXTD=
EXTT0=
EXTT1=
EXTT2=
EXTT3=
EXTT4=
EXTT5=
EXTT6=
EXTT7=
EXTT8=
EXTT9=
EXTT10=
EXTT11=
PLAYORDER=
